<?xml version="1.0" encoding="UTF-8" standalone="no"?>
<!DOCTYPE svg PUBLIC "-//W3C//DTD SVG 20010904//EN"
              "http://www.w3.org/TR/2001/REC-SVG-20010904/DTD/svg10.dtd">

<svg xmlns="http://www.w3.org/2000/svg"
     width="0.853333in" height="0.453333in"
     viewBox="0 0 256 136">
  <path id="Selection"
        fill="white" stroke="white" stroke-width="1"
        d="M 44.00,28.00
           C 43.60,32.76 42.71,38.14 38.79,41.35
             32.69,46.35 15.31,46.35 9.21,41.35
             6.59,39.20 5.42,36.21 4.68,33.00
             3.27,26.90 3.53,15.24 7.65,10.21
             13.00,3.69 30.09,3.62 36.96,7.44
             45.16,12.00 42.01,20.91 46.31,23.83
             46.31,23.83 65.00,28.42 65.00,28.42
             76.81,31.71 86.52,36.13 97.00,42.45
             121.91,57.47 141.66,79.64 167.00,94.13
             176.24,99.41 189.59,104.12 200.00,106.50
             200.00,106.50 212.00,109.00 212.00,109.00
             212.40,104.24 213.29,98.86 217.21,95.65
             223.31,90.65 240.69,90.65 246.79,95.65
             249.41,97.80 250.58,100.79 251.32,104.00
             252.73,110.10 252.47,121.76 248.35,126.79
             243.00,133.31 225.91,133.38 219.04,129.56
             210.84,125.00 213.99,116.09 209.69,113.17
             209.69,113.17 191.00,108.58 191.00,108.58
             179.19,105.29 169.48,100.87 159.00,94.55
             134.09,79.53 114.34,57.36 89.00,42.87
             79.30,37.33 66.89,32.99 56.00,30.50
             56.00,30.50 44.00,28.00 44.00,28.00 Z" />
</svg>
